<svg width="110" height="72" viewBox="0 0 110 72" fill="none" xmlns="http://www.w3.org/2000/svg">
<path d="M108.187 34.5269L96.3808 13.4905C95.2197 11.4205 92.4503 9.7975 90.074 9.7975H8.18854C5.47977 9.7975 3.27542 12.0019 3.27542 14.7106V31.769H1.63771C0.732056 31.769 0 32.5027 0 33.4067C0 34.3107 0.732056 35.0444 1.63771 35.0444H3.27542V36.8181H1.63771C0.732056 36.8181 0 37.5518 0 38.4558C0 39.3598 0.732056 40.0935 1.63771 40.0935H3.27542V59.4054C3.27542 62.1141 5.47977 64.3185 8.18854 64.3185H19.4069C20.2879 68.6355 24.1153 71.8929 28.6877 71.8929C33.2619 71.8929 37.0892 68.6355 37.9703 64.3185H75.3019C76.1829 68.6355 80.0103 71.8929 84.5827 71.8929C89.1569 71.8929 92.9842 68.6355 93.8653 64.3185H105.084C107.792 64.3185 109.997 62.1141 109.997 59.4054V41.4593C110 39.3811 109.204 36.3349 108.187 34.5269ZM102.747 31.5283H72.4686V19.4862H95.9894L102.747 31.5283ZM28.6894 68.6175C25.2715 68.6175 22.4923 65.8366 22.4923 62.4204C22.4923 59.0025 25.2715 56.2217 28.6894 56.2217C32.1073 56.2217 34.8881 59.0025 34.8881 62.4204C34.8881 65.8366 32.1056 68.6175 28.6894 68.6175ZM84.5844 68.6175C81.1665 68.6175 78.3873 65.8366 78.3873 62.4204C78.3873 59.0025 81.1665 56.2217 84.5844 56.2217C88.0023 56.2217 90.7831 59.0025 90.7831 62.4204C90.7848 65.8366 88.0023 68.6175 84.5844 68.6175ZM105.087 61.0431H93.9472C93.2774 56.4722 89.3403 52.9462 84.5844 52.9462C79.8301 52.9462 75.8931 56.4706 75.2232 61.0431H38.0505C37.3807 56.4722 33.4437 52.9462 28.6877 52.9462C23.9335 52.9462 19.9964 56.4706 19.3266 61.0431H8.18854C7.28453 61.0431 6.55084 60.3077 6.55084 59.4054V55.4028H18.4242C18.8762 55.4028 19.2431 55.0359 19.2431 54.5839C19.2431 54.1319 18.8762 53.7651 18.4242 53.7651H6.55084V14.7106C6.55084 13.8083 7.28453 13.0729 8.18854 13.0729H90.074C91.2859 13.0729 92.9302 14.0359 93.523 15.0922L94.1519 16.2108H70.8309C69.9253 16.2108 69.1932 16.9445 69.1932 17.8485V33.166C69.1932 34.07 69.9253 34.8037 70.8309 34.8037H104.586L105.331 36.1302C106.074 37.4519 106.726 39.9412 106.726 41.4593V53.7651H94.8528C94.4008 53.7651 94.034 54.1319 94.034 54.5839C94.034 55.0359 94.4008 55.4028 94.8528 55.4028H106.726V59.4054C106.725 60.3094 105.991 61.0431 105.087 61.0431ZM72.6733 54.5839C72.6733 55.0359 72.3065 55.4028 71.8545 55.4028H41.7616C41.3096 55.4028 40.9427 55.0359 40.9427 54.5839C40.9427 54.1319 41.3096 53.7651 41.7616 53.7651H71.8545C72.3065 53.7651 72.6733 54.1319 72.6733 54.5839ZM72.1951 9.11458H82.9778C85.4622 9.11458 87.4815 7.09528 87.4815 4.61088C87.4815 2.12647 85.4622 0.107178 82.9778 0.107178H72.1951C69.7107 0.107178 67.6914 2.12647 67.6914 4.61088C67.6914 7.09528 69.7107 9.11458 72.1951 9.11458ZM72.1951 3.3826H82.9778C83.6542 3.3826 84.2061 3.93287 84.2061 4.61088C84.2061 5.28889 83.6542 5.83916 82.9778 5.83916H72.1951C71.5187 5.83916 70.9668 5.28889 70.9668 4.61088C70.9668 3.93287 71.5187 3.3826 72.1951 3.3826ZM42.8277 41.0352V38.7391H45.1238C46.9335 38.7391 48.3992 37.2734 48.3992 35.4637V29.4107C48.3992 27.601 46.9335 26.1353 45.1238 26.1353H42.8277V23.8392C42.8277 22.0296 41.362 20.5638 39.5523 20.5638H33.4977C31.688 20.5638 30.2223 22.0296 30.2223 23.8392V26.1353H27.9262C26.1165 26.1353 24.6508 27.601 24.6508 29.4107V35.4653C24.6508 37.275 26.1165 38.7407 27.9262 38.7407H30.2223V41.0368C30.2223 42.8465 31.688 44.3122 33.4977 44.3122H39.5523C41.3603 44.3106 42.8277 42.8448 42.8277 41.0352ZM39.5523 41.0352H33.4977V35.4637H27.9262V29.4107H33.4977V23.8392H39.5523V29.4107H45.1238V35.4653H39.5523V41.0352ZM78.8835 29.807V21.2091C78.8835 20.7571 79.2504 20.3902 79.7024 20.3902C80.1544 20.3902 80.5212 20.7571 80.5212 21.2091V29.807C80.5212 30.259 80.1544 30.6259 79.7024 30.6259C79.2504 30.6259 78.8835 30.259 78.8835 29.807Z" fill="#ECF0F2"/>
</svg>
