<svg width="110" height="110" viewBox="0 0 110 110" fill="none" xmlns="http://www.w3.org/2000/svg">
<path d="M43.3984 60.8008H38.8867V55.8594C38.8867 55.1476 38.5245 54.7852 37.8125 54.7852H33.0859C32.3739 54.7852 31.582 55.1476 31.582 55.8594V60.8008H27.2852C26.5732 60.8008 25.7812 61.1632 25.7812 61.875V66.3867C25.7812 67.0985 26.5732 67.8906 27.2852 67.8906H31.582V71.9727C31.582 72.6844 32.3739 73.4766 33.0859 73.4766H37.8125C38.5245 73.4766 38.8867 72.6844 38.8867 71.9727V67.8906H43.3984C44.1104 67.8906 44.4727 67.0985 44.4727 66.3867V61.875C44.4727 61.1632 44.1104 60.8008 43.3984 60.8008ZM41.8945 65.3125H37.8125C37.1005 65.3125 36.3086 65.6749 36.3086 66.3867V70.8984H34.1602V66.3867C34.1602 65.6749 33.7979 65.3125 33.0859 65.3125H28.3594V63.3789H33.0859C33.7979 63.3789 34.1602 62.5868 34.1602 61.875V57.3633H36.3086V61.875C36.3086 62.5868 37.1005 63.3789 37.8125 63.3789H41.8945V65.3125Z" fill="#ECF0F2"/>
<path d="M35.7703 47.1797C26.7954 47.1823 19.5219 54.4597 19.5244 63.4346C19.5269 72.4094 26.8044 79.683 35.7793 79.6804C44.7524 79.6778 52.0251 72.4032 52.0251 63.43C52.0137 54.4582 44.7421 47.1885 35.7703 47.1797ZM35.7703 77.1023C28.2194 77.0997 22.1 70.9764 22.1025 63.4255C22.1051 55.8746 28.2284 49.7552 35.7793 49.7578C43.3285 49.7604 49.447 55.8809 49.447 63.43C49.4371 70.9786 43.3188 77.0945 35.7703 77.1018V77.1023Z" fill="#ECF0F2"/>
<path d="M12.0312 52.6797C11.3193 52.6797 10.7422 53.2568 10.7422 53.9688V73.2327C10.7422 73.9447 11.3193 74.5218 12.0312 74.5218C12.7432 74.5218 13.3203 73.9447 13.3203 73.2327V53.9688C13.3203 53.2568 12.7432 52.6797 12.0312 52.6797Z" fill="#ECF0F2"/>
<path d="M12.0312 47.1272C11.3193 47.1272 10.7422 47.7043 10.7422 48.4163V49.5672C10.7422 50.2792 11.3193 50.8562 12.0312 50.8562C12.7432 50.8562 13.3203 50.2792 13.3203 49.5672V48.4163C13.3203 47.7043 12.7432 47.1272 12.0312 47.1272Z" fill="#ECF0F2"/>
<path d="M73.6627 43.2756C71.468 41.0911 67.9207 41.0911 65.7261 43.2756C63.5336 45.4672 63.533 49.0212 65.7244 51.2137C67.916 53.4061 71.47 53.4068 73.6624 51.2152C75.8549 49.0238 75.8556 45.4698 73.6642 43.2773C73.6635 43.2767 73.6631 43.2763 73.6624 43.2756H73.6627ZM66.6588 47.2403C66.6609 45.5673 68.0189 44.2128 69.6919 44.2149C69.693 44.2149 69.6941 44.2149 69.6951 44.2149C70.0449 44.216 70.3919 44.277 70.721 44.3956L66.8422 48.2681C66.7221 47.9388 66.6603 47.591 66.6594 47.2403H66.6588ZM71.8404 49.3806C71.0078 50.2086 69.7729 50.4834 68.6678 50.0862L72.5472 46.213C72.949 47.316 72.6735 48.5522 71.841 49.38L71.8404 49.3806Z" fill="#ECF0F2"/>
<path d="M97.0055 43.2756C94.8109 41.0911 91.2636 41.0911 89.069 43.2756C86.8765 45.4672 86.8756 49.0214 89.0673 51.2139C91.2589 53.4066 94.813 53.4072 97.0055 51.2156C99.198 49.024 99.1989 45.47 97.0072 43.2773C97.0066 43.2767 97.0062 43.2762 97.0055 43.2756ZM90.0016 47.2403C90.0038 45.5673 91.3618 44.2128 93.0348 44.2149C93.0356 44.2149 93.0363 44.2149 93.0371 44.2149C93.3869 44.216 93.7341 44.2772 94.0632 44.3958L90.1842 48.2681C90.0643 47.9388 90.0029 47.591 90.0023 47.2403H90.0016ZM95.1834 49.3806C94.3507 50.2086 93.1158 50.4834 92.0106 50.0862L95.8901 46.213C96.2922 47.316 96.0166 48.5522 95.1841 49.38L95.1834 49.3806Z" fill="#ECF0F2"/>
<path d="M73.6627 58.4868C71.468 56.3023 67.9207 56.3023 65.7261 58.4868C63.5336 60.6784 63.533 64.2324 65.7244 66.4248C67.916 68.6173 71.47 68.618 73.6624 66.4266C75.8549 64.2349 75.8556 60.681 73.6642 58.4885C73.6635 58.4879 73.6631 58.4874 73.6624 58.4868H73.6627ZM66.6588 62.4517C66.6605 60.7787 68.0183 59.4239 69.6913 59.4257C69.6926 59.4257 69.6939 59.4257 69.6951 59.4257C70.0449 59.4267 70.3919 59.488 70.721 59.6065L66.8422 63.4791C66.7221 63.1498 66.6603 62.8021 66.6594 62.4517H66.6588ZM71.8404 64.5918C71.0078 65.42 69.7729 65.6946 68.6678 65.2973L72.5465 61.425C72.9485 62.528 72.6729 63.764 71.8404 64.5918Z" fill="#ECF0F2"/>
<path d="M97.0055 58.4868C94.8109 56.3023 91.2636 56.3023 89.069 58.4868C86.8765 60.6784 86.8756 64.2326 89.0673 66.425C91.2589 68.6177 94.813 68.6184 97.0055 66.4268C99.198 64.2351 99.1989 60.6812 97.0072 58.4885C97.0066 58.4879 97.0062 58.4874 97.0055 58.4868ZM90.0016 62.4517C90.0033 60.7787 91.3611 59.4239 93.0341 59.4257C93.0352 59.4257 93.0361 59.4257 93.0371 59.4257C93.3869 59.4267 93.7341 59.488 94.0632 59.6065L90.1842 63.4791C90.0646 63.1498 90.0029 62.8021 90.0023 62.4517H90.0016ZM95.1834 64.5918C94.3509 65.42 93.1158 65.6946 92.0106 65.2973L95.8896 61.425C96.2916 62.528 96.0159 63.764 95.1834 64.5918Z" fill="#ECF0F2"/>
<path d="M73.6627 73.6986C71.4683 71.5139 67.9205 71.5139 65.7261 73.6986C63.5336 75.8902 63.533 79.4442 65.7244 81.6367C67.916 83.8292 71.47 83.8298 73.6624 81.6382C75.8549 79.4468 75.8556 75.8928 73.6642 73.7003C73.6635 73.6997 73.6631 73.6993 73.6624 73.6986H73.6627ZM66.6588 77.6634C66.6603 75.9904 68.0179 74.6353 69.6908 74.6368C69.6924 74.6368 69.6936 74.6368 69.6951 74.6368C70.0449 74.6379 70.3919 74.6989 70.721 74.8175L66.8422 78.6901C66.7221 78.3609 66.6605 78.0135 66.6594 77.6634H66.6588ZM71.8404 79.8036C71.0076 80.6316 69.7727 80.9062 68.6678 80.509L72.5465 76.6366C72.9483 77.7396 72.6729 78.9758 71.8404 79.8036Z" fill="#ECF0F2"/>
<path d="M89.069 73.6985C86.8765 75.8901 86.8756 79.4442 89.0673 81.6367C91.2589 83.8294 94.813 83.8301 97.0055 81.6384C99.198 79.4468 99.1989 75.8929 97.0072 73.7002C97.0066 73.6995 97.0062 73.6991 97.0055 73.6985C94.8109 71.5139 91.2636 71.5139 89.069 73.6985ZM90.0023 77.6632C90.0038 75.9902 91.3614 74.6352 93.0343 74.6367C93.0352 74.6367 93.0363 74.6367 93.0371 74.6367C93.3869 74.6378 93.7341 74.6988 94.0632 74.8174L90.1842 78.6899C90.0646 78.3608 90.0029 78.0134 90.0023 77.6632ZM95.1841 79.8035C94.3513 80.6315 93.1164 80.906 92.0113 80.509L95.8901 76.6365C96.2922 77.7395 96.0166 78.9757 95.1841 79.8035Z" fill="#ECF0F2"/>
<path d="M73.6627 88.9099C71.468 86.7254 67.9207 86.7254 65.7261 88.9099C63.5336 91.1015 63.533 94.6554 65.7244 96.8479C67.916 99.0404 71.47 99.041 73.6624 96.8494C75.8549 94.658 75.8556 91.1041 73.6642 88.9116C73.6635 88.911 73.6631 88.9105 73.6624 88.9099H73.6627ZM66.6588 92.8748C66.6598 91.2018 68.0172 89.8464 69.6902 89.8477C69.6919 89.8477 69.6934 89.8477 69.6951 89.8477C70.0449 89.8488 70.3919 89.91 70.721 90.0286L66.8422 93.9009C66.7223 93.572 66.6605 93.2248 66.6594 92.8748H66.6588ZM71.8404 95.0149C71.0078 95.8429 69.7729 96.1177 68.6678 95.7204L72.5465 91.8479C72.9483 92.9509 72.6729 94.1871 71.8404 95.0149Z" fill="#ECF0F2"/>
<path d="M97.0055 88.9099C94.8109 86.7254 91.2636 86.7254 89.069 88.9099C86.8765 91.1015 86.8756 94.6557 89.0673 96.8481C91.2589 99.0408 94.813 99.0415 97.0055 96.8499C99.198 94.6582 99.1989 91.1043 97.0072 88.9116C97.0066 88.911 97.0062 88.9105 97.0055 88.9099ZM90.0016 92.8748C90.0027 91.2018 91.3601 89.8464 93.0331 89.8477C93.0343 89.8477 93.0358 89.8477 93.0371 89.8477C93.3869 89.8488 93.7341 89.91 94.0632 90.0286L90.1842 93.9009C90.0646 93.572 90.0029 93.2248 90.0023 92.8748H90.0016ZM95.1834 95.0149C94.3507 95.8429 93.1158 96.1177 92.0106 95.7204L95.8894 91.8479C96.2916 92.9509 96.0159 94.1871 95.1834 95.0149Z" fill="#ECF0F2"/>
<path d="M101.671 32.4414H86.3983C85.1527 32.4515 83.9826 33.04 83.2318 34.0338L81.3974 36.4674L79.5876 34.042C78.8371 33.0417 77.6621 32.4496 76.4115 32.4414H63.8241C62.0952 30.0801 59.7994 28.1922 57.1484 26.9524V21.2695H57.8834C58.5062 21.3082 59.0427 20.8346 59.0814 20.2116C59.084 20.169 59.0842 20.1263 59.082 20.0836V7.99842C59.1203 4.92478 56.6599 2.40202 53.5861 2.36369C53.5694 2.36347 53.5528 2.36335 53.5361 2.36328H18.0039C14.9308 2.3749 12.4489 4.87558 12.4605 7.94872C12.4606 7.96529 12.4607 7.98185 12.4609 7.99842V20.0836C12.4278 20.7058 12.9054 21.237 13.5276 21.2701C13.5707 21.2724 13.614 21.2722 13.6572 21.2695H14.3945V26.9571C8.26173 29.8646 4.3369 36.0287 4.29688 42.8156V89.5078C4.29688 94.6462 8.56883 98.8281 13.7122 98.8281H57.0956L57.0917 103.651C57.0939 105.845 58.8668 107.625 61.0607 107.637H76.3361C77.5792 107.637 78.7505 107.054 79.5008 106.063L81.3353 103.638L83.1441 106.049C83.8941 107.048 85.0706 107.637 86.3201 107.637H101.617C103.806 107.636 105.582 105.863 105.586 103.673L105.641 36.424C105.638 34.2304 103.864 32.4511 101.671 32.4414ZM15.0391 7.99842C14.9982 6.3514 16.3003 4.98311 17.9473 4.94227C17.9662 4.94181 17.985 4.94151 18.0039 4.94141H53.5361C55.1845 4.95041 56.5138 6.29415 56.5048 7.94271C56.5045 7.96129 56.5043 7.97986 56.5039 7.99842V18.6914H15.0391V7.99842ZM16.1517 28.9998C16.6432 28.8052 16.9677 28.3321 16.9727 27.8036V21.2695H54.5703V27.8044C54.5746 28.3357 54.902 28.8108 55.3968 29.0039C57.3446 29.7735 59.0986 30.9635 60.5333 32.4893C58.5913 32.7751 57.151 34.4388 57.1463 36.4016L57.1424 41.0352H7.04687C7.68926 35.6941 11.1934 30.9895 16.1517 28.9998ZM57.0977 96.25H13.7158C9.99023 96.25 6.875 93.2254 6.875 89.5039V86.7969H57.1055L57.0977 96.25ZM80.0508 101.02L77.4447 104.484C77.183 104.837 76.7731 105.049 76.334 105.059H61.0607C60.2903 105.049 59.6707 104.422 59.6698 103.652L59.7076 56.9347C59.7083 56.2227 59.1317 55.6452 58.4197 55.6445C57.7077 55.6439 57.1302 56.2205 57.1295 56.9325L57.1074 84.2188H6.875V43.6133H57.1403L57.1366 48.3398C57.136 49.0518 57.7126 49.6293 58.4246 49.63C59.1366 49.6306 59.7141 49.054 59.7147 48.342L59.7244 36.4033C59.7261 35.6372 60.3485 35.0178 61.1147 35.0195C61.1149 35.0195 61.1149 35.0195 61.1151 35.0195H76.412C76.8524 35.0275 77.2643 35.2397 77.5259 35.594L80.1041 39.062L80.0508 101.02ZM102.91 103.671C102.91 104.436 102.384 105.058 101.617 105.058H86.3197C85.8818 105.057 85.4696 104.851 85.2057 104.502L82.6276 101.025L82.6811 39.0747L85.2872 35.6018C85.5482 35.2471 85.9581 35.0322 86.3983 35.0195H101.671C102.425 35.0318 103.026 35.6525 103.014 36.4063C103.013 36.4117 103.013 36.4173 103.013 36.4229L102.91 103.671Z" fill="#ECF0F2"/>
</svg>
