<svg width="110" height="110" viewBox="0 0 110 110" fill="none" xmlns="http://www.w3.org/2000/svg">
<path d="M6.01562 107.852H103.984C104.933 107.85 105.702 107.082 105.703 106.133V101.947C105.696 96.1548 101.002 91.4611 95.2099 91.454H68.4243V83.8393C68.4243 83.5832 68.4155 83.3291 68.4013 83.0764C84.5649 78.0961 93.6308 60.9557 88.6505 44.7921C86.4804 37.7485 81.8426 31.7238 75.5885 27.8238L78.3795 25.4276C79.1508 24.7635 79.2397 23.6006 78.5785 22.8269L77.1504 21.1582L81.6933 17.244L82.1777 17.8105C82.4779 18.1624 82.9063 18.3797 83.3675 18.4138C83.4129 18.4175 83.4582 18.419 83.5033 18.419C83.9188 18.4195 84.3208 18.2703 84.6353 17.9987L88.6374 14.5632C89.3662 13.936 89.4504 12.8374 88.8256 12.1064L80.812 2.75666C80.1859 2.02609 79.0863 1.9413 78.3559 2.56725C78.3552 2.56766 78.3548 2.56804 78.3544 2.56845L74.3533 6.00423C73.6244 6.63134 73.5402 7.73014 74.1651 8.46097L74.5549 8.91601L70.0053 12.8225L68.8469 11.4707C68.1841 10.6973 67.0199 10.6076 66.2464 11.2704C66.246 11.2708 66.2456 11.2712 66.2451 11.2716L41.9751 32.1056L41.4354 31.4759C40.8177 30.7551 39.7326 30.6717 39.012 31.2894C39.0115 31.2896 39.0113 31.2901 39.0109 31.2903L34.2676 35.3618C33.5489 35.9803 33.4658 37.0635 34.082 37.7843L47.2966 53.203C47.5926 53.5504 48.0154 53.7651 48.4707 53.7988C48.5156 53.8022 48.5603 53.804 48.6047 53.804C49.0149 53.8044 49.4115 53.6572 49.7219 53.3891L54.4644 49.318C55.1835 48.6995 55.2666 47.6158 54.6502 46.895L54.1086 46.2632L68.1244 34.2319L68.8078 34.5943C75.8295 38.4121 80.1982 45.7673 80.1913 53.7599C80.1902 54.6266 80.1386 55.4924 80.0364 56.3531C77.3704 55.8486 74.8002 57.6011 74.296 60.2671C73.8989 62.3655 74.9029 64.4798 76.78 65.4983C73.9864 69.8687 69.7404 73.1135 64.7898 74.661C62.2585 71.9471 58.7136 70.4064 55.0024 70.4071C54.925 70.4071 54.8488 70.4116 54.7718 70.4129C54.7336 70.4094 54.6949 70.4071 54.6558 70.4071H54.6526L17.4715 70.4943C16.4526 70.4943 15.6267 71.3204 15.6268 72.3394C15.6268 72.4954 15.6466 72.6507 15.6857 72.8017L18.1758 82.4207C18.3863 83.235 19.1208 83.8037 19.9618 83.8034L41.5802 83.7918C41.5802 83.8075 41.5789 83.823 41.5789 83.8385L41.5746 91.454H14.7901C8.99772 91.4611 4.30386 96.1548 4.29688 101.947V106.133C4.29795 107.082 5.06683 107.85 6.01562 107.852ZM79.3998 5.07031L86.3255 13.1506L83.5914 15.4977L76.6657 7.41705L79.3998 5.07031ZM76.2326 10.8735L80.0138 15.2863L75.471 19.2008L71.6831 14.7812L76.2326 10.8735ZM48.6954 50.8728L36.5997 36.7587L40.0372 33.8067L52.134 47.9207L48.6954 50.8728ZM67.2278 31.6037C67.1447 31.6596 67.0686 31.7251 67.0007 31.7988L52.4311 44.3057L43.6528 34.0633L67.3671 13.707L76.1456 23.9497L67.2278 31.6037ZM79.1207 58.8442C79.5431 58.8444 79.9573 58.9602 80.3185 59.1793C80.3539 59.2038 80.3907 59.2264 80.4285 59.247C81.496 59.9706 81.7749 61.4225 81.0513 62.4901C80.6173 63.1305 79.8944 63.5142 79.1207 63.5151C79.0702 63.5151 79.0206 63.5108 78.9703 63.5076C78.9035 63.4949 78.8358 63.4878 78.7677 63.4861C77.4939 63.2889 76.621 62.0963 76.8185 60.8223C76.9942 59.6866 77.9709 58.8478 79.1203 58.8455L79.1207 58.8442ZM79.443 66.0816C82.1489 65.9042 84.1988 63.5665 84.0213 60.8605C83.9392 59.6116 83.3837 58.4414 82.4678 57.5884C82.6676 56.3219 82.7688 55.0419 82.7701 53.7599C82.7754 44.898 77.9702 36.7314 70.221 32.4324L73.532 29.5902C86.9075 37.4047 91.4156 54.5826 83.6011 67.9581C80.1215 73.914 74.5693 78.3789 68.0054 80.4994C67.6726 79.2049 67.1475 77.9676 66.4475 76.829C71.9084 74.8864 76.5095 71.0808 79.4426 66.0816H79.443ZM55.0026 72.985C58.2207 72.9848 61.2719 74.4171 63.3278 76.8928C63.3596 76.9373 63.3942 76.9798 63.4313 77.02C64.9962 78.948 65.8494 81.3559 65.8472 83.8391V91.454H44.1536L44.1579 83.8393C44.162 77.8501 49.0134 72.9944 55.0026 72.985ZM20.5294 81.2251L18.4183 73.0701L47.0834 73.0028C44.3708 74.9884 42.5 77.9176 41.8389 81.2137L20.5294 81.2251ZM6.875 101.947C6.87996 97.5779 10.4208 94.0371 14.7901 94.0322H42.7601C42.7943 94.0347 42.8282 94.0373 42.863 94.0373C42.8983 94.0373 42.9327 94.035 42.967 94.0322H67.0312C67.0656 94.035 67.1 94.0373 67.1348 94.0373C67.17 94.0373 67.2044 94.035 67.2388 94.0322H95.2099C99.5792 94.0371 103.12 97.5779 103.125 101.947V105.273H6.875V101.947Z" fill="#ECF0F2"/>
<path d="M54.9108 88.0348C57.9595 88.0367 60.4327 85.5669 60.4347 82.5182C60.4366 79.4696 57.9668 76.9963 54.9181 76.9944C51.8695 76.9925 49.3962 79.4623 49.3943 82.5109C49.3943 82.5122 49.3943 82.5133 49.3943 82.5146C49.3969 85.5608 51.8646 88.0303 54.9108 88.0348ZM54.9108 79.5727C56.5357 79.5708 57.8546 80.8863 57.8566 82.5111C57.8585 84.136 56.543 85.4549 54.9181 85.4569C53.2933 85.4588 51.9743 84.1433 51.9724 82.5184C51.9724 82.5172 51.9724 82.5159 51.9724 82.5146C51.9733 80.8914 53.2877 79.5755 54.9108 79.5727Z" fill="#ECF0F2"/>
<path d="M63.6857 19.2653L55.8407 25.9899C55.3001 26.4533 55.2378 27.2672 55.701 27.8077C56.1644 28.348 56.9783 28.4106 57.5188 27.9471L65.3638 21.2215C65.9044 20.7581 65.9667 19.9443 65.5035 19.4038C65.04 18.8633 64.2262 18.8008 63.6857 19.2642V19.2653Z" fill="#ECF0F2"/>
<path d="M53.4455 28.0633L52.4841 28.9158C51.9515 29.3882 51.9025 30.2029 52.3749 30.7357C52.8472 31.2683 53.6621 31.3173 54.1947 30.8449L55.1561 29.9924C55.6889 29.5199 55.7377 28.7053 55.2654 28.1724C54.793 27.6398 53.9783 27.5909 53.4455 28.0633Z" fill="#ECF0F2"/>
</svg>
